<mxfile host="app.diagrams.net" modified="2022-06-13T21:44:38.655Z" agent="5.0 (Windows NT 10.0; Win64; x64) AppleWebKit/537.36 (KHTML, like Gecko) Chrome/101.0.4951.67 Safari/537.36" etag="dYIq4dGCCCje802__L0Q" version="18.0.2" type="github" pages="4">
  <diagram id="8Ai8LcPD3dRADdZJNtyQ" name="Home screen">
    <mxGraphModel dx="1231" dy="697" grid="1" gridSize="10" guides="1" tooltips="1" connect="1" arrows="1" fold="1" page="1" pageScale="1" pageWidth="1100" pageHeight="850" math="0" shadow="0">
      <root>
        <mxCell id="0" />
        <mxCell id="1" parent="0" />
        <mxCell id="Ec3SND6wJ-g5AKn1nneo-4" value="" style="strokeWidth=1;shadow=0;dashed=0;align=center;html=1;shape=mxgraph.mockup.containers.browserWindow;rSize=0;strokeColor=#666666;strokeColor2=#008cff;strokeColor3=#c4c4c4;mainText=,;recursiveResize=0;" vertex="1" parent="1">
          <mxGeometry x="25" y="86" width="1051" height="1844" as="geometry" />
        </mxCell>
        <mxCell id="Ec3SND6wJ-g5AKn1nneo-34" value="" style="rounded=0;whiteSpace=wrap;html=1;shadow=0;labelBackgroundColor=none;labelBorderColor=none;fontFamily=Tahoma;fontSize=35;fontColor=#000000;strokeColor=none;strokeWidth=26;fillColor=#7EA6E0;gradientColor=none;" vertex="1" parent="Ec3SND6wJ-g5AKn1nneo-4">
          <mxGeometry x="1" y="110" width="1050" height="110" as="geometry" />
        </mxCell>
        <mxCell id="Ec3SND6wJ-g5AKn1nneo-5" value="Page 1" style="strokeWidth=1;shadow=0;dashed=0;align=center;html=1;shape=mxgraph.mockup.containers.anchor;fontSize=17;fontColor=#666666;align=left;" vertex="1" parent="Ec3SND6wJ-g5AKn1nneo-4">
          <mxGeometry x="60" y="12" width="110" height="26" as="geometry" />
        </mxCell>
        <mxCell id="Ec3SND6wJ-g5AKn1nneo-6" value="https://www.draw.io" style="strokeWidth=1;shadow=0;dashed=0;align=center;html=1;shape=mxgraph.mockup.containers.anchor;rSize=0;fontSize=17;fontColor=#666666;align=left;" vertex="1" parent="Ec3SND6wJ-g5AKn1nneo-4">
          <mxGeometry x="130" y="60" width="250" height="26" as="geometry" />
        </mxCell>
        <mxCell id="Ec3SND6wJ-g5AKn1nneo-15" value="Sign Up" style="rounded=1;html=1;shadow=0;dashed=0;whiteSpace=wrap;fontSize=16;fillColor=#dae8fc;align=center;strokeColor=#6c8ebf;fontStyle=1" vertex="1" parent="Ec3SND6wJ-g5AKn1nneo-4">
          <mxGeometry x="951" y="123" width="85.5" height="30" as="geometry" />
        </mxCell>
        <mxCell id="Ec3SND6wJ-g5AKn1nneo-17" value="&lt;font size=&quot;1&quot; face=&quot;Tahoma&quot; style=&quot;&quot;&gt;&lt;u style=&quot;font-size: 35px;&quot;&gt;LocalDeals&lt;/u&gt;&lt;/font&gt;" style="text;html=1;strokeColor=none;fillColor=none;align=center;verticalAlign=middle;whiteSpace=wrap;rounded=0;fontSize=16;" vertex="1" parent="Ec3SND6wJ-g5AKn1nneo-4">
          <mxGeometry x="438" y="115" width="175" height="60" as="geometry" />
        </mxCell>
        <mxCell id="Ec3SND6wJ-g5AKn1nneo-20" value="" style="sketch=0;outlineConnect=0;fontColor=#232F3E;gradientColor=none;fillColor=#D45B07;strokeColor=default;verticalLabelPosition=bottom;verticalAlign=top;align=center;html=1;fontSize=12;fontStyle=0;pointerEvents=1;shape=mxgraph.aws4.container_registry_image;fontFamily=Tahoma;perimeterSpacing=26;strokeWidth=26;labelBorderColor=none;labelBackgroundColor=#000000;" vertex="1" parent="Ec3SND6wJ-g5AKn1nneo-4">
          <mxGeometry x="97" y="266" width="855" height="190" as="geometry" />
        </mxCell>
        <mxCell id="Ec3SND6wJ-g5AKn1nneo-21" value="" style="verticalLabelPosition=bottom;shadow=0;dashed=0;align=center;html=1;verticalAlign=top;strokeWidth=1;shape=mxgraph.mockup.navigation.pageControl;fillColor=#999999;strokeColor=#ddeeff;fontFamily=Tahoma;fontSize=35;fontColor=#000000;" vertex="1" parent="Ec3SND6wJ-g5AKn1nneo-4">
          <mxGeometry x="466.5" y="469" width="120" height="30" as="geometry" />
        </mxCell>
        <mxCell id="Ec3SND6wJ-g5AKn1nneo-29" value="" style="strokeWidth=1;shadow=0;dashed=0;align=center;html=1;shape=mxgraph.mockup.text.rrect;rSize=0;labelBackgroundColor=none;labelBorderColor=none;fontFamily=Tahoma;fontSize=35;" vertex="1" parent="Ec3SND6wJ-g5AKn1nneo-4">
          <mxGeometry x="275" y="185" width="500" height="25" as="geometry" />
        </mxCell>
        <UserObject label="Coupons" link="data:page/id,4YE4zVeLuSNUIO8vOBRp" id="Ec3SND6wJ-g5AKn1nneo-30">
          <mxCell style="strokeColor=inherit;fillColor=inherit;gradientColor=inherit;strokeWidth=1;shadow=0;dashed=0;align=center;html=1;shape=mxgraph.mockup.text.rrect;rSize=0;fontSize=17;fontColor=#0000ff;labelBackgroundColor=none;labelBorderColor=none;fontFamily=Tahoma;" vertex="1" parent="Ec3SND6wJ-g5AKn1nneo-29">
            <mxGeometry x="125" width="125" height="25" as="geometry" />
          </mxCell>
        </UserObject>
        <mxCell id="Ec3SND6wJ-g5AKn1nneo-31" value="About Us" style="strokeColor=inherit;fillColor=inherit;gradientColor=inherit;strokeWidth=1;shadow=0;dashed=0;align=center;html=1;shape=mxgraph.mockup.text.rrect;rSize=0;fontSize=17;fontColor=#0000ff;labelBackgroundColor=none;labelBorderColor=none;fontFamily=Tahoma;" vertex="1" parent="Ec3SND6wJ-g5AKn1nneo-29">
          <mxGeometry x="250" width="125" height="25" as="geometry" />
        </mxCell>
        <mxCell id="Ec3SND6wJ-g5AKn1nneo-32" value="FAQ" style="strokeColor=inherit;fillColor=inherit;gradientColor=inherit;strokeWidth=1;shadow=0;dashed=0;align=center;html=1;shape=mxgraph.mockup.text.rrect;rSize=0;fontSize=17;fontColor=#0000ff;labelBackgroundColor=none;labelBorderColor=none;fontFamily=Tahoma;" vertex="1" parent="Ec3SND6wJ-g5AKn1nneo-29">
          <mxGeometry x="375" width="125" height="25" as="geometry" />
        </mxCell>
        <mxCell id="Ec3SND6wJ-g5AKn1nneo-33" value="Home" style="strokeWidth=1;shadow=0;dashed=0;align=center;html=1;shape=mxgraph.mockup.text.rrect;rSize=0;fontSize=17;fontColor=#ffffff;fillColor=#008cff;strokeColor=#008cff;labelBackgroundColor=none;labelBorderColor=none;fontFamily=Tahoma;" vertex="1" parent="Ec3SND6wJ-g5AKn1nneo-29">
          <mxGeometry width="125" height="25" as="geometry" />
        </mxCell>
        <mxCell id="Ec3SND6wJ-g5AKn1nneo-41" value="" style="verticalLabelPosition=bottom;shadow=0;dashed=0;align=center;html=1;verticalAlign=top;strokeWidth=1;shape=mxgraph.mockup.misc.shoppingCart;labelBackgroundColor=none;labelBorderColor=none;fontFamily=Tahoma;fontSize=35;fillColor=#a0522d;strokeColor=#6D1F00;fontColor=#ffffff;flipH=1;" vertex="1" parent="Ec3SND6wJ-g5AKn1nneo-4">
          <mxGeometry x="380" y="120" width="50" height="50" as="geometry" />
        </mxCell>
        <object label="" LocalDeals="" id="Ec3SND6wJ-g5AKn1nneo-43">
          <mxCell style="verticalLabelPosition=bottom;shadow=0;dashed=0;align=center;html=1;verticalAlign=top;strokeWidth=1;shape=mxgraph.mockup.graphics.lineChart;strokeColor=none;strokeColor2=#666666;strokeColor3=#008cff;strokeColor4=#dddddd;labelBackgroundColor=none;labelBorderColor=none;fontFamily=Tahoma;fontSize=35;fontColor=#000000;fillColor=#7EA6E0;gradientColor=none;points=[[0.01,1,0,0,0],[0.56,0.7,0,0,0],[0.95,0.13,0,0,0]];" vertex="1" parent="Ec3SND6wJ-g5AKn1nneo-4">
            <mxGeometry x="125" y="644" width="400" height="200" as="geometry" />
          </mxCell>
        </object>
        <mxCell id="Ec3SND6wJ-g5AKn1nneo-44" value="" style="verticalLabelPosition=bottom;shadow=0;dashed=0;align=center;html=1;verticalAlign=top;strokeWidth=1;shape=mxgraph.mockup.graphics.pieChart;strokeColor=#008cff;parts=10,20,35;partColors=#e0e0e0,#d0d0d0,#c0c0c0,#b0b0b0,#a0a0a0;strokeWidth=2;labelBackgroundColor=none;labelBorderColor=none;fontFamily=Tahoma;fontSize=35;fontColor=#000000;fillColor=#7EA6E0;gradientColor=none;" vertex="1" parent="Ec3SND6wJ-g5AKn1nneo-4">
          <mxGeometry x="695" y="934" width="200" height="200" as="geometry" />
        </mxCell>
        <mxCell id="g2vvY1fLW92TIpUCu8w1-1" value="" style="verticalLabelPosition=bottom;shadow=0;dashed=0;align=center;html=1;verticalAlign=top;strokeWidth=1;shape=mxgraph.mockup.containers.userFemale;strokeColor=#666666;strokeColor2=#008cff;labelBackgroundColor=none;labelBorderColor=none;fontFamily=Tahoma;fontSize=35;fontColor=#000000;fillColor=#FFFFFF;gradientColor=none;" vertex="1" parent="Ec3SND6wJ-g5AKn1nneo-4">
          <mxGeometry x="175" y="1327" width="235.5" height="226" as="geometry" />
        </mxCell>
        <mxCell id="g2vvY1fLW92TIpUCu8w1-4" value="&lt;font style=&quot;font-size: 20px;&quot;&gt;Lorem ipsum dolor sit amet, consectetur adipisicing elit, sed do eiusmod tempor incididunt ut labore et dolore magna aliqua. Ut enim ad minim veniam, quis nostrud exercitation ullamco laboris nisi ut aliquip ex ea commodo consequat. Duis aute irure dolor in reprehenderit in voluptate velit esse cillum dolore eu fugiat nulla pariatur. Excepteur sint occaecat cupidatat non proident, sunt in culpa qui officia deserunt mollit anim id est laborum.&lt;/font&gt;" style="text;spacingTop=-5;whiteSpace=wrap;html=1;align=left;fontSize=12;fontFamily=Helvetica;fillColor=none;strokeColor=none;shadow=0;labelBackgroundColor=none;labelBorderColor=none;fontColor=#000000;" vertex="1" parent="Ec3SND6wJ-g5AKn1nneo-4">
          <mxGeometry x="505" y="1322" width="430" height="254" as="geometry" />
        </mxCell>
        <mxCell id="ed6k9Ll5OPkEKi_OYKbh-1" value="Coupon Clipping images (Special weekly deals or the hottest deals of the day." style="text;html=1;strokeColor=none;fillColor=none;align=center;verticalAlign=middle;whiteSpace=wrap;rounded=0;shadow=0;labelBackgroundColor=none;labelBorderColor=none;fontFamily=Tahoma;fontSize=16;fontColor=#000000;" vertex="1" parent="Ec3SND6wJ-g5AKn1nneo-4">
          <mxGeometry x="336.75" y="229" width="379.5" height="30" as="geometry" />
        </mxCell>
        <mxCell id="3jkH5VD6xm5pN7zD3bFf-2" value="&lt;font style=&quot;font-size: 24px;&quot;&gt;Inforgraphics&lt;/font&gt;" style="text;html=1;strokeColor=none;fillColor=none;align=center;verticalAlign=middle;whiteSpace=wrap;rounded=0;shadow=0;labelBackgroundColor=none;labelBorderColor=none;fontFamily=Tahoma;fontSize=16;fontColor=#000000;" vertex="1" parent="Ec3SND6wJ-g5AKn1nneo-4">
          <mxGeometry x="496.5" y="564" width="63.5" height="30" as="geometry" />
        </mxCell>
        <mxCell id="3jkH5VD6xm5pN7zD3bFf-7" value="&lt;p style=&quot;line-height: 0.3;&quot;&gt;&lt;/p&gt;&lt;h1 style=&quot;font-size: 22px;&quot;&gt;&lt;font style=&quot;font-size: 22px;&quot;&gt;LocalDeals Vs. Competitors&lt;/font&gt;&lt;/h1&gt;&lt;p style=&quot;font-size: 22px;&quot;&gt;&lt;font style=&quot;font-size: 22px;&quot;&gt;&lt;font style=&quot;font-size: 22px;&quot;&gt;Blue respresents Local Deals,&amp;nbsp;&lt;/font&gt;&lt;span style=&quot;background-color: initial;&quot;&gt;White represents Competitors&lt;/span&gt;&lt;/font&gt;&lt;/p&gt;&lt;p style=&quot;font-size: 22px;&quot;&gt;&lt;font style=&quot;font-size: 22px;&quot;&gt;Being a small brand makes it easier to provide better customer service and support.&lt;/font&gt;&lt;/p&gt;&lt;p&gt;&lt;/p&gt;" style="text;html=1;strokeColor=none;fillColor=none;spacing=5;spacingTop=-20;whiteSpace=wrap;overflow=hidden;rounded=0;shadow=0;labelBackgroundColor=none;labelBorderColor=none;fontFamily=Tahoma;fontSize=16;fontColor=#000000;" vertex="1" parent="Ec3SND6wJ-g5AKn1nneo-4">
          <mxGeometry x="556.5" y="644" width="465" height="196" as="geometry" />
        </mxCell>
        <mxCell id="3jkH5VD6xm5pN7zD3bFf-8" value="&lt;p style=&quot;line-height: 0.3;&quot;&gt;&lt;/p&gt;&lt;h1 style=&quot;font-size: 22px;&quot;&gt;&lt;font style=&quot;font-size: 22px;&quot;&gt;LocalDeals Business&lt;/font&gt;&lt;/h1&gt;&lt;p style=&quot;font-size: 22px;&quot;&gt;&lt;font style=&quot;font-size: 22px;&quot;&gt;60% goes to the business. customer gets 10% because of the discount, and 30% goes to LocalDeals&lt;/font&gt;&lt;/p&gt;&lt;p&gt;&lt;/p&gt;" style="text;html=1;strokeColor=none;fillColor=none;spacing=5;spacingTop=-20;whiteSpace=wrap;overflow=hidden;rounded=0;shadow=0;labelBackgroundColor=none;labelBorderColor=none;fontFamily=Tahoma;fontSize=16;fontColor=#000000;align=right;" vertex="1" parent="Ec3SND6wJ-g5AKn1nneo-4">
          <mxGeometry x="90" y="938" width="530" height="196" as="geometry" />
        </mxCell>
        <mxCell id="3jkH5VD6xm5pN7zD3bFf-9" value="&lt;font style=&quot;font-size: 24px;&quot;&gt;Customer Reviews&lt;/font&gt;" style="text;html=1;strokeColor=none;fillColor=none;align=center;verticalAlign=middle;whiteSpace=wrap;rounded=0;shadow=0;labelBackgroundColor=none;labelBorderColor=none;fontFamily=Tahoma;fontSize=22;fontColor=#000000;" vertex="1" parent="Ec3SND6wJ-g5AKn1nneo-4">
          <mxGeometry x="421.25" y="1254" width="206.5" height="30" as="geometry" />
        </mxCell>
        <mxCell id="Ec3SND6wJ-g5AKn1nneo-37" value="" style="endArrow=none;html=1;rounded=0;fontFamily=Tahoma;fontSize=35;fontColor=#000000;" edge="1" parent="1">
          <mxGeometry width="50" height="50" relative="1" as="geometry">
            <mxPoint x="30" y="607" as="sourcePoint" />
            <mxPoint x="1070" y="607" as="targetPoint" />
          </mxGeometry>
        </mxCell>
        <mxCell id="Ec3SND6wJ-g5AKn1nneo-45" value="" style="endArrow=none;html=1;rounded=0;fontFamily=Tahoma;fontSize=35;fontColor=#000000;" edge="1" parent="1">
          <mxGeometry width="50" height="50" relative="1" as="geometry">
            <mxPoint x="31" y="1302" as="sourcePoint" />
            <mxPoint x="1071" y="1302" as="targetPoint" />
          </mxGeometry>
        </mxCell>
        <mxCell id="3jkH5VD6xm5pN7zD3bFf-1" value="" style="rounded=0;whiteSpace=wrap;html=1;shadow=0;labelBackgroundColor=none;labelBorderColor=none;fontFamily=Tahoma;fontSize=35;strokeColor=none;strokeWidth=26;fillColor=#dae8fc;gradientDirection=north;gradientColor=#ffffff;" vertex="1" parent="1">
          <mxGeometry x="27" y="1710" width="1050" height="223" as="geometry" />
        </mxCell>
        <mxCell id="3jkH5VD6xm5pN7zD3bFf-3" value="&lt;span style=&quot;font-size: 16px;&quot;&gt;Location&lt;/span&gt;" style="text;html=1;strokeColor=none;fillColor=none;align=center;verticalAlign=middle;whiteSpace=wrap;rounded=0;shadow=0;labelBackgroundColor=none;labelBorderColor=none;fontFamily=Tahoma;fontSize=24;fontColor=#000000;" vertex="1" parent="1">
          <mxGeometry x="150" y="1840" width="60" height="30" as="geometry" />
        </mxCell>
        <mxCell id="3jkH5VD6xm5pN7zD3bFf-4" value="business&amp;nbsp; contacts" style="text;html=1;strokeColor=none;fillColor=none;align=center;verticalAlign=middle;whiteSpace=wrap;rounded=0;shadow=0;labelBackgroundColor=none;labelBorderColor=none;fontFamily=Tahoma;fontSize=16;fontColor=#000000;" vertex="1" parent="1">
          <mxGeometry x="410" y="1840" width="60" height="30" as="geometry" />
        </mxCell>
        <mxCell id="3jkH5VD6xm5pN7zD3bFf-5" value="Social Media" style="text;html=1;strokeColor=none;fillColor=none;align=center;verticalAlign=middle;whiteSpace=wrap;rounded=0;shadow=0;labelBackgroundColor=none;labelBorderColor=none;fontFamily=Tahoma;fontSize=16;fontColor=#000000;" vertex="1" parent="1">
          <mxGeometry x="930" y="1840" width="60" height="30" as="geometry" />
        </mxCell>
        <mxCell id="3jkH5VD6xm5pN7zD3bFf-11" value="Customer Support" style="text;html=1;strokeColor=none;fillColor=none;align=center;verticalAlign=middle;whiteSpace=wrap;rounded=0;shadow=0;labelBackgroundColor=none;labelBorderColor=none;fontFamily=Tahoma;fontSize=16;fontColor=#000000;" vertex="1" parent="1">
          <mxGeometry x="670" y="1840" width="60" height="30" as="geometry" />
        </mxCell>
      </root>
    </mxGraphModel>
  </diagram>
  <diagram id="4YE4zVeLuSNUIO8vOBRp" name="Coupons">
    <mxGraphModel dx="1231" dy="697" grid="1" gridSize="10" guides="1" tooltips="1" connect="1" arrows="1" fold="1" page="1" pageScale="1" pageWidth="1100" pageHeight="850" math="0" shadow="0">
      <root>
        <mxCell id="0" />
        <mxCell id="1" parent="0" />
        <mxCell id="IuseWcv3wdTALtnvZLEn-1" value="" style="strokeWidth=1;shadow=0;dashed=0;align=center;html=1;shape=mxgraph.mockup.containers.browserWindow;rSize=0;strokeColor=#666666;strokeColor2=#008cff;strokeColor3=#c4c4c4;mainText=,;recursiveResize=0;" vertex="1" parent="1">
          <mxGeometry x="25" y="86" width="1051" height="1844" as="geometry" />
        </mxCell>
        <mxCell id="IuseWcv3wdTALtnvZLEn-2" value="" style="rounded=0;whiteSpace=wrap;html=1;shadow=0;labelBackgroundColor=none;labelBorderColor=none;fontFamily=Tahoma;fontSize=35;fontColor=#000000;strokeColor=none;strokeWidth=26;fillColor=#7EA6E0;gradientColor=none;" vertex="1" parent="IuseWcv3wdTALtnvZLEn-1">
          <mxGeometry x="1" y="110" width="1050" height="110" as="geometry" />
        </mxCell>
        <mxCell id="IuseWcv3wdTALtnvZLEn-3" value="Page 1" style="strokeWidth=1;shadow=0;dashed=0;align=center;html=1;shape=mxgraph.mockup.containers.anchor;fontSize=17;fontColor=#666666;align=left;" vertex="1" parent="IuseWcv3wdTALtnvZLEn-1">
          <mxGeometry x="60" y="12" width="110" height="26" as="geometry" />
        </mxCell>
        <mxCell id="IuseWcv3wdTALtnvZLEn-4" value="https://www.draw.io" style="strokeWidth=1;shadow=0;dashed=0;align=center;html=1;shape=mxgraph.mockup.containers.anchor;rSize=0;fontSize=17;fontColor=#666666;align=left;" vertex="1" parent="IuseWcv3wdTALtnvZLEn-1">
          <mxGeometry x="130" y="60" width="250" height="26" as="geometry" />
        </mxCell>
        <mxCell id="IuseWcv3wdTALtnvZLEn-5" value="Sign Up" style="rounded=1;html=1;shadow=0;dashed=0;whiteSpace=wrap;fontSize=16;fillColor=#dae8fc;align=center;strokeColor=#6c8ebf;fontStyle=1" vertex="1" parent="IuseWcv3wdTALtnvZLEn-1">
          <mxGeometry x="951" y="123" width="85.5" height="30" as="geometry" />
        </mxCell>
        <mxCell id="IuseWcv3wdTALtnvZLEn-6" value="&lt;font size=&quot;1&quot; face=&quot;Tahoma&quot; style=&quot;&quot;&gt;&lt;u style=&quot;font-size: 35px;&quot;&gt;LocalDeals&lt;/u&gt;&lt;/font&gt;" style="text;html=1;strokeColor=none;fillColor=none;align=center;verticalAlign=middle;whiteSpace=wrap;rounded=0;fontSize=16;" vertex="1" parent="IuseWcv3wdTALtnvZLEn-1">
          <mxGeometry x="438" y="115" width="175" height="60" as="geometry" />
        </mxCell>
        <mxCell id="IuseWcv3wdTALtnvZLEn-9" value="" style="strokeWidth=1;shadow=0;dashed=0;align=center;html=1;shape=mxgraph.mockup.text.rrect;rSize=0;labelBackgroundColor=none;labelBorderColor=none;fontFamily=Tahoma;fontSize=35;" vertex="1" parent="IuseWcv3wdTALtnvZLEn-1">
          <mxGeometry x="275" y="185" width="500" height="25" as="geometry" />
        </mxCell>
        <mxCell id="IuseWcv3wdTALtnvZLEn-10" value="Coupons" style="strokeColor=inherit;fillColor=inherit;gradientColor=inherit;strokeWidth=1;shadow=0;dashed=0;align=center;html=1;shape=mxgraph.mockup.text.rrect;rSize=0;fontSize=17;fontColor=#0000ff;labelBackgroundColor=none;labelBorderColor=none;fontFamily=Tahoma;" vertex="1" parent="IuseWcv3wdTALtnvZLEn-9">
          <mxGeometry x="125" width="125" height="25" as="geometry" />
        </mxCell>
        <mxCell id="IuseWcv3wdTALtnvZLEn-11" value="About Us" style="strokeColor=inherit;fillColor=inherit;gradientColor=inherit;strokeWidth=1;shadow=0;dashed=0;align=center;html=1;shape=mxgraph.mockup.text.rrect;rSize=0;fontSize=17;fontColor=#0000ff;labelBackgroundColor=none;labelBorderColor=none;fontFamily=Tahoma;" vertex="1" parent="IuseWcv3wdTALtnvZLEn-9">
          <mxGeometry x="250" width="125" height="25" as="geometry" />
        </mxCell>
        <mxCell id="IuseWcv3wdTALtnvZLEn-12" value="FAQ" style="strokeColor=inherit;fillColor=inherit;gradientColor=inherit;strokeWidth=1;shadow=0;dashed=0;align=center;html=1;shape=mxgraph.mockup.text.rrect;rSize=0;fontSize=17;fontColor=#0000ff;labelBackgroundColor=none;labelBorderColor=none;fontFamily=Tahoma;" vertex="1" parent="IuseWcv3wdTALtnvZLEn-9">
          <mxGeometry x="375" width="125" height="25" as="geometry" />
        </mxCell>
        <mxCell id="IuseWcv3wdTALtnvZLEn-13" value="Home" style="strokeWidth=1;shadow=0;dashed=0;align=center;html=1;shape=mxgraph.mockup.text.rrect;rSize=0;fontSize=17;fontColor=#ffffff;fillColor=#008cff;strokeColor=#008cff;labelBackgroundColor=none;labelBorderColor=none;fontFamily=Tahoma;" vertex="1" parent="IuseWcv3wdTALtnvZLEn-9">
          <mxGeometry width="125" height="25" as="geometry" />
        </mxCell>
        <mxCell id="IuseWcv3wdTALtnvZLEn-14" value="" style="verticalLabelPosition=bottom;shadow=0;dashed=0;align=center;html=1;verticalAlign=top;strokeWidth=1;shape=mxgraph.mockup.misc.shoppingCart;labelBackgroundColor=none;labelBorderColor=none;fontFamily=Tahoma;fontSize=35;fillColor=#a0522d;strokeColor=#6D1F00;fontColor=#ffffff;flipH=1;" vertex="1" parent="IuseWcv3wdTALtnvZLEn-1">
          <mxGeometry x="380" y="120" width="50" height="50" as="geometry" />
        </mxCell>
        <mxCell id="IuseWcv3wdTALtnvZLEn-20" value="" style="rounded=1;html=1;shadow=0;dashed=0;whiteSpace=wrap;fontSize=10;fillColor=#cce5ff;align=center;strokeColor=#36393d;labelBackgroundColor=none;labelBorderColor=none;fontFamily=Tahoma;" vertex="1" parent="IuseWcv3wdTALtnvZLEn-1">
          <mxGeometry x="25" y="324" width="290" height="200" as="geometry" />
        </mxCell>
        <mxCell id="IuseWcv3wdTALtnvZLEn-22" value="" style="rounded=1;html=1;shadow=0;dashed=0;whiteSpace=wrap;fontSize=10;fillColor=#cce5ff;align=center;strokeColor=#36393d;labelBackgroundColor=none;labelBorderColor=none;fontFamily=Tahoma;" vertex="1" parent="IuseWcv3wdTALtnvZLEn-1">
          <mxGeometry x="715" y="324" width="290" height="200" as="geometry" />
        </mxCell>
        <mxCell id="IuseWcv3wdTALtnvZLEn-23" value="" style="rounded=0;whiteSpace=wrap;html=1;shadow=0;labelBackgroundColor=none;labelBorderColor=none;fontFamily=Tahoma;fontSize=35;strokeColor=none;strokeWidth=26;fillColor=#cce5ff;rotation=-90;" vertex="1" parent="IuseWcv3wdTALtnvZLEn-1">
          <mxGeometry x="486.07" y="-266.55" width="79.05" height="1051" as="geometry" />
        </mxCell>
        <mxCell id="IuseWcv3wdTALtnvZLEn-24" value="" style="rounded=1;html=1;shadow=0;dashed=0;whiteSpace=wrap;fontSize=10;fillColor=#cce5ff;align=center;strokeColor=#36393d;labelBackgroundColor=none;labelBorderColor=none;fontFamily=Tahoma;" vertex="1" parent="IuseWcv3wdTALtnvZLEn-1">
          <mxGeometry x="380" y="324" width="290" height="200" as="geometry" />
        </mxCell>
        <mxCell id="IuseWcv3wdTALtnvZLEn-25" value="" style="rounded=1;html=1;shadow=0;dashed=0;whiteSpace=wrap;fontSize=10;fillColor=#cce5ff;align=center;strokeColor=#36393d;labelBackgroundColor=none;labelBorderColor=none;fontFamily=Tahoma;" vertex="1" parent="IuseWcv3wdTALtnvZLEn-1">
          <mxGeometry x="25" y="564" width="290" height="200" as="geometry" />
        </mxCell>
        <mxCell id="IuseWcv3wdTALtnvZLEn-26" value="" style="rounded=1;html=1;shadow=0;dashed=0;whiteSpace=wrap;fontSize=10;fillColor=#cce5ff;align=center;strokeColor=#36393d;labelBackgroundColor=none;labelBorderColor=none;fontFamily=Tahoma;" vertex="1" parent="IuseWcv3wdTALtnvZLEn-1">
          <mxGeometry x="381" y="564" width="290" height="200" as="geometry" />
        </mxCell>
        <mxCell id="IuseWcv3wdTALtnvZLEn-27" value="" style="rounded=1;html=1;shadow=0;dashed=0;whiteSpace=wrap;fontSize=10;fillColor=#cce5ff;align=center;strokeColor=#36393d;labelBackgroundColor=none;labelBorderColor=none;fontFamily=Tahoma;" vertex="1" parent="IuseWcv3wdTALtnvZLEn-1">
          <mxGeometry x="725" y="564" width="290" height="200" as="geometry" />
        </mxCell>
        <mxCell id="IuseWcv3wdTALtnvZLEn-28" value="" style="rounded=1;html=1;shadow=0;dashed=0;whiteSpace=wrap;fontSize=10;fillColor=#cce5ff;align=center;strokeColor=#36393d;labelBackgroundColor=none;labelBorderColor=none;fontFamily=Tahoma;" vertex="1" parent="IuseWcv3wdTALtnvZLEn-1">
          <mxGeometry x="25" y="804" width="290" height="200" as="geometry" />
        </mxCell>
        <mxCell id="IuseWcv3wdTALtnvZLEn-29" value="" style="rounded=1;html=1;shadow=0;dashed=0;whiteSpace=wrap;fontSize=10;fillColor=#cce5ff;align=center;strokeColor=#36393d;labelBackgroundColor=none;labelBorderColor=none;fontFamily=Tahoma;" vertex="1" parent="IuseWcv3wdTALtnvZLEn-1">
          <mxGeometry x="381" y="804" width="290" height="200" as="geometry" />
        </mxCell>
        <mxCell id="IuseWcv3wdTALtnvZLEn-37" value="&lt;font style=&quot;font-size: 15px;&quot;&gt;Filters&lt;/font&gt;" style="rounded=1;html=1;shadow=0;dashed=0;whiteSpace=wrap;fontSize=10;fillColor=#E6E6E6;align=center;strokeColor=#E6E6E6;fontColor=#333333;labelBackgroundColor=none;labelBorderColor=none;fontFamily=Tahoma;" vertex="1" parent="IuseWcv3wdTALtnvZLEn-1">
          <mxGeometry x="685" y="239" width="105.5" height="26" as="geometry" />
        </mxCell>
        <mxCell id="4OOVAAEg7mVtT_ehV48Z-1" value="" style="sketch=0;outlineConnect=0;fontColor=#232F3E;gradientColor=none;fillColor=#D45B07;strokeColor=none;dashed=0;verticalLabelPosition=bottom;verticalAlign=top;align=center;html=1;fontSize=12;fontStyle=0;aspect=fixed;pointerEvents=1;shape=mxgraph.aws4.container_registry_image;shadow=0;labelBackgroundColor=none;labelBorderColor=none;fontFamily=Tahoma;" vertex="1" parent="IuseWcv3wdTALtnvZLEn-1">
          <mxGeometry x="55" y="357" width="65" height="65" as="geometry" />
        </mxCell>
        <mxCell id="dk78B0G74AX3LTm3F_jn-2" value="" style="rounded=1;html=1;shadow=0;dashed=0;whiteSpace=wrap;fontSize=10;fillColor=#cce5ff;align=center;strokeColor=#36393d;labelBackgroundColor=none;labelBorderColor=none;fontFamily=Tahoma;" vertex="1" parent="IuseWcv3wdTALtnvZLEn-1">
          <mxGeometry x="715" y="804" width="290" height="200" as="geometry" />
        </mxCell>
        <mxCell id="dk78B0G74AX3LTm3F_jn-3" value="Sign In" style="text;html=1;strokeColor=none;fillColor=none;align=center;verticalAlign=middle;whiteSpace=wrap;rounded=0;shadow=0;labelBackgroundColor=none;labelBorderColor=none;fontFamily=Tahoma;fontSize=16;fontColor=#000000;" vertex="1" parent="IuseWcv3wdTALtnvZLEn-1">
          <mxGeometry x="875" y="123" width="60" height="30" as="geometry" />
        </mxCell>
        <mxCell id="IuseWcv3wdTALtnvZLEn-33" value="" style="shape=rect;fillColor=#F6F6F6;strokeColor=none;shadow=0;labelBackgroundColor=none;labelBorderColor=none;fontFamily=Tahoma;fontSize=20;fontColor=#000000;" vertex="1" parent="IuseWcv3wdTALtnvZLEn-1">
          <mxGeometry x="275" y="234" width="398" height="36" as="geometry" />
        </mxCell>
        <mxCell id="IuseWcv3wdTALtnvZLEn-34" value="" style="html=1;strokeWidth=1;shadow=0;dashed=0;shape=mxgraph.ios7ui.marginRect;rx=3;ry=3;rectMargin=5;fillColor=#E4E4E4;strokeColor=none;labelBackgroundColor=none;labelBorderColor=none;fontFamily=Tahoma;fontSize=20;fontColor=#000000;" vertex="1" parent="IuseWcv3wdTALtnvZLEn-33">
          <mxGeometry width="398" height="36" as="geometry" />
        </mxCell>
        <mxCell id="IuseWcv3wdTALtnvZLEn-35" value="Search" style="shape=mxgraph.ios7.icons.looking_glass;strokeColor=#878789;fillColor=none;fontColor=#878789;labelPosition=right;verticalLabelPosition=middle;align=left;verticalAlign=middle;fontSize=10;fontStyle=0;spacingTop=2;sketch=0;shadow=0;labelBackgroundColor=none;labelBorderColor=none;fontFamily=Tahoma;" vertex="1" parent="IuseWcv3wdTALtnvZLEn-33">
          <mxGeometry x="0.5" y="0.5" width="6.5" height="6.5" relative="1" as="geometry">
            <mxPoint x="-17.5" y="-3" as="offset" />
          </mxGeometry>
        </mxCell>
      </root>
    </mxGraphModel>
  </diagram>
  <diagram id="Ocp173985pwLrrePin3x" name="Sign up">
    <mxGraphModel dx="1695" dy="751" grid="1" gridSize="10" guides="1" tooltips="1" connect="1" arrows="1" fold="1" page="1" pageScale="1" pageWidth="1100" pageHeight="850" math="0" shadow="0">
      <root>
        <mxCell id="0" />
        <mxCell id="1" parent="0" />
        <mxCell id="igoA53NhDsj10AIcZIzV-1" value="" style="strokeWidth=1;shadow=0;dashed=0;align=center;html=1;shape=mxgraph.mockup.containers.browserWindow;rSize=0;strokeColor=#666666;strokeColor2=#008cff;strokeColor3=#c4c4c4;mainText=,;recursiveResize=0;" vertex="1" parent="1">
          <mxGeometry x="25" y="86" width="1051" height="1844" as="geometry" />
        </mxCell>
        <mxCell id="igoA53NhDsj10AIcZIzV-2" value="" style="rounded=0;whiteSpace=wrap;html=1;shadow=0;labelBackgroundColor=none;labelBorderColor=none;fontFamily=Tahoma;fontSize=35;fontColor=#000000;strokeColor=none;strokeWidth=26;fillColor=#7EA6E0;gradientColor=none;" vertex="1" parent="igoA53NhDsj10AIcZIzV-1">
          <mxGeometry x="1" y="110" width="1050" height="110" as="geometry" />
        </mxCell>
        <mxCell id="igoA53NhDsj10AIcZIzV-3" value="Page 1" style="strokeWidth=1;shadow=0;dashed=0;align=center;html=1;shape=mxgraph.mockup.containers.anchor;fontSize=17;fontColor=#666666;align=left;" vertex="1" parent="igoA53NhDsj10AIcZIzV-1">
          <mxGeometry x="60" y="12" width="110" height="26" as="geometry" />
        </mxCell>
        <mxCell id="igoA53NhDsj10AIcZIzV-4" value="https://www.draw.io" style="strokeWidth=1;shadow=0;dashed=0;align=center;html=1;shape=mxgraph.mockup.containers.anchor;rSize=0;fontSize=17;fontColor=#666666;align=left;" vertex="1" parent="igoA53NhDsj10AIcZIzV-1">
          <mxGeometry x="130" y="60" width="250" height="26" as="geometry" />
        </mxCell>
        <mxCell id="igoA53NhDsj10AIcZIzV-5" value="Sign Up" style="rounded=1;html=1;shadow=0;dashed=0;whiteSpace=wrap;fontSize=16;fillColor=#dae8fc;align=center;strokeColor=#6c8ebf;fontStyle=1" vertex="1" parent="igoA53NhDsj10AIcZIzV-1">
          <mxGeometry x="951" y="123" width="85.5" height="30" as="geometry" />
        </mxCell>
        <mxCell id="igoA53NhDsj10AIcZIzV-6" value="&lt;font size=&quot;1&quot; face=&quot;Tahoma&quot; style=&quot;&quot;&gt;&lt;u style=&quot;font-size: 35px;&quot;&gt;LocalDeals&lt;/u&gt;&lt;/font&gt;" style="text;html=1;strokeColor=none;fillColor=none;align=center;verticalAlign=middle;whiteSpace=wrap;rounded=0;fontSize=16;" vertex="1" parent="igoA53NhDsj10AIcZIzV-1">
          <mxGeometry x="438" y="115" width="175" height="60" as="geometry" />
        </mxCell>
        <mxCell id="igoA53NhDsj10AIcZIzV-7" value="" style="strokeWidth=1;shadow=0;dashed=0;align=center;html=1;shape=mxgraph.mockup.text.rrect;rSize=0;labelBackgroundColor=none;labelBorderColor=none;fontFamily=Tahoma;fontSize=35;" vertex="1" parent="igoA53NhDsj10AIcZIzV-1">
          <mxGeometry x="275" y="185" width="500" height="25" as="geometry" />
        </mxCell>
        <mxCell id="igoA53NhDsj10AIcZIzV-8" value="Coupons" style="strokeColor=inherit;fillColor=inherit;gradientColor=inherit;strokeWidth=1;shadow=0;dashed=0;align=center;html=1;shape=mxgraph.mockup.text.rrect;rSize=0;fontSize=17;fontColor=#0000ff;labelBackgroundColor=none;labelBorderColor=none;fontFamily=Tahoma;" vertex="1" parent="igoA53NhDsj10AIcZIzV-7">
          <mxGeometry x="125" width="125" height="25" as="geometry" />
        </mxCell>
        <mxCell id="igoA53NhDsj10AIcZIzV-9" value="About Us" style="strokeColor=inherit;fillColor=inherit;gradientColor=inherit;strokeWidth=1;shadow=0;dashed=0;align=center;html=1;shape=mxgraph.mockup.text.rrect;rSize=0;fontSize=17;fontColor=#0000ff;labelBackgroundColor=none;labelBorderColor=none;fontFamily=Tahoma;" vertex="1" parent="igoA53NhDsj10AIcZIzV-7">
          <mxGeometry x="250" width="125" height="25" as="geometry" />
        </mxCell>
        <mxCell id="igoA53NhDsj10AIcZIzV-10" value="FAQ" style="strokeColor=inherit;fillColor=inherit;gradientColor=inherit;strokeWidth=1;shadow=0;dashed=0;align=center;html=1;shape=mxgraph.mockup.text.rrect;rSize=0;fontSize=17;fontColor=#0000ff;labelBackgroundColor=none;labelBorderColor=none;fontFamily=Tahoma;" vertex="1" parent="igoA53NhDsj10AIcZIzV-7">
          <mxGeometry x="375" width="125" height="25" as="geometry" />
        </mxCell>
        <mxCell id="igoA53NhDsj10AIcZIzV-11" value="Home" style="strokeWidth=1;shadow=0;dashed=0;align=center;html=1;shape=mxgraph.mockup.text.rrect;rSize=0;fontSize=17;fontColor=#ffffff;fillColor=#008cff;strokeColor=#008cff;labelBackgroundColor=none;labelBorderColor=none;fontFamily=Tahoma;" vertex="1" parent="igoA53NhDsj10AIcZIzV-7">
          <mxGeometry width="125" height="25" as="geometry" />
        </mxCell>
        <mxCell id="igoA53NhDsj10AIcZIzV-12" value="" style="verticalLabelPosition=bottom;shadow=0;dashed=0;align=center;html=1;verticalAlign=top;strokeWidth=1;shape=mxgraph.mockup.misc.shoppingCart;labelBackgroundColor=none;labelBorderColor=none;fontFamily=Tahoma;fontSize=35;fillColor=#a0522d;strokeColor=#6D1F00;fontColor=#ffffff;flipH=1;" vertex="1" parent="igoA53NhDsj10AIcZIzV-1">
          <mxGeometry x="380" y="120" width="50" height="50" as="geometry" />
        </mxCell>
        <mxCell id="igoA53NhDsj10AIcZIzV-15" value="" style="rounded=0;whiteSpace=wrap;html=1;shadow=0;labelBackgroundColor=none;labelBorderColor=none;fontFamily=Tahoma;fontSize=35;strokeColor=none;strokeWidth=26;fillColor=#cce5ff;rotation=-90;" vertex="1" parent="igoA53NhDsj10AIcZIzV-1">
          <mxGeometry x="53.48" y="167.94" width="948.57" height="1051.54" as="geometry" />
        </mxCell>
        <mxCell id="igoA53NhDsj10AIcZIzV-26" value="" style="strokeWidth=1;shadow=0;dashed=0;align=center;html=1;shape=mxgraph.mockup.navigation.stepBar;strokeColor=#c4c4c4;textColor=#666666;textColor2=#008cff;mainText=Layer 1,Layer 2,+Layer 3,Layer 4;textSize=17;fillColor=#666666;overflow=fill;fontSize=17;fontColor=#666666;labelBackgroundColor=none;labelBorderColor=none;fontFamily=Tahoma;" vertex="1" parent="igoA53NhDsj10AIcZIzV-1">
          <mxGeometry x="258.5" y="253" width="535" height="86" as="geometry" />
        </mxCell>
        <mxCell id="igoA53NhDsj10AIcZIzV-27" value="&lt;font style=&quot;font-size: 16px;&quot;&gt;Next&lt;/font&gt;" style="rounded=1;html=1;shadow=0;dashed=0;whiteSpace=wrap;fontSize=10;fillColor=#666666;align=center;strokeColor=#4D4D4D;fontColor=#ffffff;labelBackgroundColor=none;labelBorderColor=none;fontFamily=Tahoma;" vertex="1" parent="igoA53NhDsj10AIcZIzV-1">
          <mxGeometry x="685" y="554" width="105.5" height="26" as="geometry" />
        </mxCell>
        <mxCell id="igoA53NhDsj10AIcZIzV-28" value="&lt;font style=&quot;font-size: 16px;&quot;&gt;Back&lt;/font&gt;" style="rounded=1;html=1;shadow=0;dashed=0;whiteSpace=wrap;fontSize=10;fillColor=#666666;align=center;strokeColor=#4D4D4D;fontColor=#ffffff;labelBackgroundColor=none;labelBorderColor=none;fontFamily=Tahoma;" vertex="1" parent="igoA53NhDsj10AIcZIzV-1">
          <mxGeometry x="265" y="554" width="105.5" height="26" as="geometry" />
        </mxCell>
      </root>
    </mxGraphModel>
  </diagram>
  <diagram name="Better Sign Up" id="hR6GGFt9xSBXOA4BEl-d">
    <mxGraphModel dx="1469" dy="651" grid="1" gridSize="10" guides="1" tooltips="1" connect="1" arrows="1" fold="1" page="1" pageScale="1" pageWidth="1100" pageHeight="850" math="0" shadow="0">
      <root>
        <mxCell id="oH879QrObA57grZo2su5-0" />
        <mxCell id="oH879QrObA57grZo2su5-1" parent="oH879QrObA57grZo2su5-0" />
        <mxCell id="oH879QrObA57grZo2su5-2" value="" style="strokeWidth=1;shadow=0;dashed=0;align=center;html=1;shape=mxgraph.mockup.containers.browserWindow;rSize=0;strokeColor=#666666;strokeColor2=#008cff;strokeColor3=#c4c4c4;mainText=,;recursiveResize=0;" vertex="1" parent="oH879QrObA57grZo2su5-1">
          <mxGeometry x="25" y="86" width="1051" height="1844" as="geometry" />
        </mxCell>
        <mxCell id="oH879QrObA57grZo2su5-3" value="" style="rounded=0;whiteSpace=wrap;html=1;shadow=0;labelBackgroundColor=none;labelBorderColor=none;fontFamily=Tahoma;fontSize=35;fontColor=#000000;strokeColor=none;strokeWidth=26;fillColor=#7EA6E0;gradientColor=none;" vertex="1" parent="oH879QrObA57grZo2su5-2">
          <mxGeometry x="1" y="110" width="1050" height="110" as="geometry" />
        </mxCell>
        <mxCell id="oH879QrObA57grZo2su5-4" value="Page 1" style="strokeWidth=1;shadow=0;dashed=0;align=center;html=1;shape=mxgraph.mockup.containers.anchor;fontSize=17;fontColor=#666666;align=left;" vertex="1" parent="oH879QrObA57grZo2su5-2">
          <mxGeometry x="60" y="12" width="110" height="26" as="geometry" />
        </mxCell>
        <mxCell id="oH879QrObA57grZo2su5-5" value="https://www.draw.io" style="strokeWidth=1;shadow=0;dashed=0;align=center;html=1;shape=mxgraph.mockup.containers.anchor;rSize=0;fontSize=17;fontColor=#666666;align=left;" vertex="1" parent="oH879QrObA57grZo2su5-2">
          <mxGeometry x="130" y="60" width="250" height="26" as="geometry" />
        </mxCell>
        <mxCell id="oH879QrObA57grZo2su5-6" value="Sign Up" style="rounded=1;html=1;shadow=0;dashed=0;whiteSpace=wrap;fontSize=16;fillColor=#dae8fc;align=center;strokeColor=#6c8ebf;fontStyle=1" vertex="1" parent="oH879QrObA57grZo2su5-2">
          <mxGeometry x="951" y="123" width="85.5" height="30" as="geometry" />
        </mxCell>
        <mxCell id="oH879QrObA57grZo2su5-7" value="&lt;font size=&quot;1&quot; face=&quot;Tahoma&quot; style=&quot;&quot;&gt;&lt;u style=&quot;font-size: 35px;&quot;&gt;LocalDeals&lt;/u&gt;&lt;/font&gt;" style="text;html=1;strokeColor=none;fillColor=none;align=center;verticalAlign=middle;whiteSpace=wrap;rounded=0;fontSize=16;" vertex="1" parent="oH879QrObA57grZo2su5-2">
          <mxGeometry x="438" y="115" width="175" height="60" as="geometry" />
        </mxCell>
        <mxCell id="oH879QrObA57grZo2su5-8" value="" style="strokeWidth=1;shadow=0;dashed=0;align=center;html=1;shape=mxgraph.mockup.text.rrect;rSize=0;labelBackgroundColor=none;labelBorderColor=none;fontFamily=Tahoma;fontSize=35;" vertex="1" parent="oH879QrObA57grZo2su5-2">
          <mxGeometry x="275" y="185" width="500" height="25" as="geometry" />
        </mxCell>
        <mxCell id="oH879QrObA57grZo2su5-9" value="Coupons" style="strokeColor=inherit;fillColor=inherit;gradientColor=inherit;strokeWidth=1;shadow=0;dashed=0;align=center;html=1;shape=mxgraph.mockup.text.rrect;rSize=0;fontSize=17;fontColor=#0000ff;labelBackgroundColor=none;labelBorderColor=none;fontFamily=Tahoma;" vertex="1" parent="oH879QrObA57grZo2su5-8">
          <mxGeometry x="125" width="125" height="25" as="geometry" />
        </mxCell>
        <mxCell id="oH879QrObA57grZo2su5-10" value="About Us" style="strokeColor=inherit;fillColor=inherit;gradientColor=inherit;strokeWidth=1;shadow=0;dashed=0;align=center;html=1;shape=mxgraph.mockup.text.rrect;rSize=0;fontSize=17;fontColor=#0000ff;labelBackgroundColor=none;labelBorderColor=none;fontFamily=Tahoma;" vertex="1" parent="oH879QrObA57grZo2su5-8">
          <mxGeometry x="250" width="125" height="25" as="geometry" />
        </mxCell>
        <mxCell id="oH879QrObA57grZo2su5-11" value="FAQ" style="strokeColor=inherit;fillColor=inherit;gradientColor=inherit;strokeWidth=1;shadow=0;dashed=0;align=center;html=1;shape=mxgraph.mockup.text.rrect;rSize=0;fontSize=17;fontColor=#0000ff;labelBackgroundColor=none;labelBorderColor=none;fontFamily=Tahoma;" vertex="1" parent="oH879QrObA57grZo2su5-8">
          <mxGeometry x="375" width="125" height="25" as="geometry" />
        </mxCell>
        <mxCell id="oH879QrObA57grZo2su5-12" value="Home" style="strokeWidth=1;shadow=0;dashed=0;align=center;html=1;shape=mxgraph.mockup.text.rrect;rSize=0;fontSize=17;fontColor=#ffffff;fillColor=#008cff;strokeColor=#008cff;labelBackgroundColor=none;labelBorderColor=none;fontFamily=Tahoma;" vertex="1" parent="oH879QrObA57grZo2su5-8">
          <mxGeometry width="125" height="25" as="geometry" />
        </mxCell>
        <mxCell id="oH879QrObA57grZo2su5-13" value="" style="verticalLabelPosition=bottom;shadow=0;dashed=0;align=center;html=1;verticalAlign=top;strokeWidth=1;shape=mxgraph.mockup.misc.shoppingCart;labelBackgroundColor=none;labelBorderColor=none;fontFamily=Tahoma;fontSize=35;fillColor=#a0522d;strokeColor=#6D1F00;fontColor=#ffffff;flipH=1;" vertex="1" parent="oH879QrObA57grZo2su5-2">
          <mxGeometry x="380" y="120" width="50" height="50" as="geometry" />
        </mxCell>
        <mxCell id="oH879QrObA57grZo2su5-14" value="" style="rounded=0;whiteSpace=wrap;html=1;shadow=0;labelBackgroundColor=none;labelBorderColor=none;fontFamily=Tahoma;fontSize=35;strokeColor=none;strokeWidth=26;fillColor=#cce5ff;rotation=-90;" vertex="1" parent="oH879QrObA57grZo2su5-2">
          <mxGeometry x="53.48" y="167.94" width="948.57" height="1051.54" as="geometry" />
        </mxCell>
        <mxCell id="oH879QrObA57grZo2su5-15" value="" style="strokeWidth=1;shadow=0;dashed=0;align=center;html=1;shape=mxgraph.mockup.navigation.stepBar;strokeColor=#c4c4c4;textColor=#666666;textColor2=#008cff;mainText=Layer 1,Layer 2,+Layer 3,Layer 4;textSize=17;fillColor=#666666;overflow=fill;fontSize=17;fontColor=#666666;labelBackgroundColor=none;labelBorderColor=none;fontFamily=Tahoma;" vertex="1" parent="oH879QrObA57grZo2su5-2">
          <mxGeometry x="258.5" y="253" width="535" height="86" as="geometry" />
        </mxCell>
        <mxCell id="oH879QrObA57grZo2su5-16" value="&lt;font style=&quot;font-size: 16px;&quot;&gt;Next&lt;/font&gt;" style="rounded=1;html=1;shadow=0;dashed=0;whiteSpace=wrap;fontSize=10;fillColor=#666666;align=center;strokeColor=#4D4D4D;fontColor=#ffffff;labelBackgroundColor=none;labelBorderColor=none;fontFamily=Tahoma;" vertex="1" parent="oH879QrObA57grZo2su5-2">
          <mxGeometry x="685" y="554" width="105.5" height="26" as="geometry" />
        </mxCell>
        <mxCell id="oH879QrObA57grZo2su5-17" value="&lt;font style=&quot;font-size: 16px;&quot;&gt;Back&lt;/font&gt;" style="rounded=1;html=1;shadow=0;dashed=0;whiteSpace=wrap;fontSize=10;fillColor=#666666;align=center;strokeColor=#4D4D4D;fontColor=#ffffff;labelBackgroundColor=none;labelBorderColor=none;fontFamily=Tahoma;" vertex="1" parent="oH879QrObA57grZo2su5-2">
          <mxGeometry x="265" y="554" width="105.5" height="26" as="geometry" />
        </mxCell>
        <mxCell id="xbjSWDxpHuszi0_C7IXA-0" value="Basic Information" style="text;html=1;resizable=0;autosize=1;align=center;verticalAlign=middle;points=[];fillColor=none;strokeColor=none;rounded=0;shadow=0;labelBackgroundColor=none;labelBorderColor=none;fontFamily=Tahoma;fontSize=16;fontColor=#000000;" vertex="1" parent="oH879QrObA57grZo2su5-2">
          <mxGeometry x="455" y="319" width="140" height="20" as="geometry" />
        </mxCell>
        <mxCell id="xbjSWDxpHuszi0_C7IXA-1" value="First Name&lt;br&gt;Last Name&lt;br&gt;Phone Number&lt;br&gt;Email&lt;br&gt;Date of Birth" style="text;html=1;resizable=0;autosize=1;align=center;verticalAlign=middle;points=[];fillColor=none;strokeColor=none;rounded=0;shadow=0;labelBackgroundColor=none;labelBorderColor=none;fontFamily=Tahoma;fontSize=16;fontColor=#000000;" vertex="1" parent="oH879QrObA57grZo2su5-2">
          <mxGeometry x="475" y="374" width="120" height="100" as="geometry" />
        </mxCell>
      </root>
    </mxGraphModel>
  </diagram>
</mxfile>
